Coordinates
version=1
nRows=43
nColumns=12
inDegrees=yes

Units are S.I. units (second, meters, Newtons, ...)
Angles are in degrees

endheader
time	SC_y	SC_z	SC_x	AC_y	AC_z	AC_x	GH_y	GH_z	GH_yy	EL_x	PS_y
       0.0              -16.04          19.97          80.84          63.14         -8.734         -12.28          34.46           10.8          -62.3          135.6          116.8
   0.04705              -16.05          19.97          80.83          63.14         -8.734         -12.28          34.45           10.8         -62.29          135.6          116.8
    0.0941              -16.05          19.97          80.82          63.14         -8.734         -12.28          34.45          10.81         -62.28          135.6          116.8
    0.1411              -16.06          19.98          80.82          63.14         -8.733         -12.28          34.45          10.81         -62.27          135.6          116.8
    0.1882              -16.07          19.98          80.81          63.14         -8.733         -12.27          34.45          10.82         -62.25          135.6          116.8
    0.2352              -16.07          19.98           80.8          63.14         -8.733         -12.27          34.44          10.82         -62.24          135.6          116.8
    0.2823              -16.08          19.99          80.79          63.14         -8.733         -12.26          34.44          10.83         -62.22          135.6          116.8
    0.3293              -16.09          19.99          80.78          63.14         -8.732         -12.26          34.44          10.84         -62.21          135.6          116.8
    0.3764               -16.1           20.0          80.77          63.14         -8.732         -12.25          34.43          10.85         -62.19          135.5          116.8
    0.4234              -16.11           20.0          80.76          63.14         -8.732         -12.25          34.43          10.86         -62.17          135.5          116.8
    0.4705              -16.12           20.0          80.75          63.14         -8.731         -12.24          34.43          10.86         -62.15          135.5          116.8
    0.5175              -16.13          20.01          80.73          63.14         -8.731         -12.24          34.42          10.87         -62.13          135.5          116.8
    0.5646              -16.14          20.02          80.72          63.14         -8.731         -12.23          34.42          10.89          -62.1          135.5          116.8
    0.6116              -16.15          20.02           80.7          63.14          -8.73         -12.23          34.41           10.9         -62.08          135.5          116.8
    0.6587              -16.17          20.03          80.69          63.14          -8.73         -12.22          34.41          10.91         -62.05          135.5          116.8
    0.7057              -16.18          20.03          80.67          63.14         -8.729         -12.21           34.4          10.92         -62.02          135.5          116.8
    0.7528               -16.2          20.04          80.65          63.14         -8.729          -12.2          34.39          10.94         -61.99          135.4          116.8
    0.7998              -16.21          20.05          80.63          63.15         -8.728         -12.19          34.39          10.95         -61.95          135.4          116.9
    0.8469              -16.23          20.06          80.61          63.15         -8.727         -12.18          34.38          10.97         -61.91          135.4          116.9
    0.8939              -16.25          20.07          80.58          63.15         -8.727         -12.17          34.37          10.99         -61.87          135.4          116.9
     0.941              -16.28          20.08          80.55          63.15         -8.726         -12.16          34.36          11.01         -61.83          135.4          116.9
     0.988               -16.3          20.09          80.52          63.15         -8.725         -12.14          34.35          11.03         -61.77          135.3          116.9
     1.035              -16.33          20.11          80.49          63.15         -8.724         -12.13          34.34          11.06         -61.72          135.3          116.9
     1.082              -16.36          20.12          80.45          63.15         -8.723         -12.11          34.33          11.09         -61.66          135.3          116.9
     1.129              -16.39          20.14          80.41          63.15         -8.722         -12.09          34.32          11.12         -61.59          135.2          116.9
     1.176              -16.43          20.16          80.36          63.16         -8.721         -12.07           34.3          11.15         -61.51          135.2          116.9
     1.223              -16.47          20.18          80.31          63.16         -8.719         -12.05          34.28          11.19         -61.42          135.1          117.0
      1.27              -16.52           20.2          80.25          63.16         -8.718         -12.02          34.26          11.24         -61.32          135.1          117.0
     1.317              -16.58          20.23          80.19          63.16         -8.716         -11.99          34.24          11.29         -61.21          135.0          117.0
     1.364              -16.64          20.26          80.11          63.17         -8.714         -11.96          34.22          11.34         -61.09          135.0          117.0
     1.411              -16.71          20.29          80.03          63.17         -8.711         -11.92          34.19          11.41         -60.95          134.9          117.0
     1.459              -16.79          20.33          79.93          63.17         -8.708         -11.88          34.16          11.48         -60.78          134.8          117.1
     1.506              -16.88          20.37          79.82          63.18         -8.705         -11.83          34.12          11.57         -60.59          134.7          117.1
     1.553              -16.99          20.43          79.69          63.18         -8.702         -11.77          34.08          11.67         -60.37          134.6          117.2
       1.6              -17.12          20.49          79.53          63.19         -8.697          -11.7          34.03          11.78         -60.11          134.4          117.2
     1.647              -17.27          20.56          79.35           63.2         -8.692         -11.62          33.97          11.92         -59.81          134.3          117.3
     1.694              -17.45          20.65          79.14          63.21         -8.686         -11.52           33.9          12.08         -59.45          134.1          117.3
     1.741              -17.66          20.75          78.88          63.22         -8.679         -11.41          33.81          12.28         -59.02          133.8          117.4
     1.788              -17.92          20.87          78.57          63.23          -8.67         -11.27          33.71          12.52         -58.49          133.5          117.5
     1.835              -18.23          21.03          78.18          63.25         -8.659          -11.1          33.58           12.8         -57.85          133.2          117.6
     1.882              -18.62          21.21          77.71          63.26         -8.646         -10.89          33.43          13.16         -57.06          132.8          117.8
     1.929              -19.11          21.45          77.13          63.29          -8.63         -10.63          33.24          13.61         -56.08          132.2          118.0
     1.976              -19.72          21.74          76.39          63.32         -8.609          -10.3          32.99          14.17         -54.84          131.6          118.2
